<?xml version="1.0" standalone="no"?><!DOCTYPE svg PUBLIC "-//W3C//DTD SVG 1.1//EN" "http://www.w3.org/Graphics/SVG/1.1/DTD/svg11.dtd"><svg class="icon" width="200px" height="200.00px" viewBox="0 0 1024 1024" version="1.1" xmlns="http://www.w3.org/2000/svg"><path fill="#90aaa1" d="M423.508196 604.964409c-15.951644-6.617316-36.645547 0.211627-46.470258 15.537493-9.961244 15.397547-5.291804 33.790862 10.591573 40.897422 16.095004 7.313636 37.414684 0.347022 47.378205-15.397546 9.821298-15.952782 4.667164-34.208427-11.49952-41.037369z"  /><path fill="#90aaa1" d="M512 115.456c-219.005156 0-396.544 177.539982-396.544 396.544S292.994844 908.544 512 908.544 908.544 731.004018 908.544 512 731.005156 115.456 512 115.456z m-50.100907 647.032604c-129.23904 0-261.40672-62.211413-261.40672-164.488533 0-53.508551 34.137884-115.306951 92.872249-173.693155 78.447502-77.891129 169.996516-113.355662 204.414294-79.147236 15.190471 15.051662 16.652516 41.177316 6.900622 72.318293-5.087004 15.675164 14.838898 6.966613 14.838898 7.040569 63.402667-26.406684 118.787413-27.940409 138.996622 0.764587 10.725831 15.2576 9.751893 36.717227-0.211627 61.589049-4.600036 11.426702 1.393778 13.16864 10.241138 15.815111 35.741013 11.006862 75.523413 37.62176 75.523413 84.442453-0.001138 77.612373-112.729884 175.358862-282.168889 175.358862zM695.922916 438.044444c4.320142-13.653333 1.256107-28.188444-8.149903-38.566115-9.547093-10.315093-23.759076-15.104-37.482951-12.179911-5.297493 1.115022-10.869191 0.042098-15.468089-2.955947-4.59776-2.926364-7.733476-7.573049-8.916764-12.867129-2.367716-11.009138 4.668302-21.83168 15.815111-24.201671 28.075804-5.991538 57.267769 3.333689 76.497351 24.513422 19.996444 21.948871 25.291662 51.829191 16.7936 78.026525a20.137529 20.137529 0 0 1-10.175147 11.841991c-4.87424 2.438258-10.518756 3.313209-15.676302 1.639538C698.363449 459.808996 692.440178 448.284444 695.994596 438.044444h-0.07168zM815.786667 475.726507c-3.413333 9.124978-11.334542 15.537493-20.948765 16.30208s-18.80064-4.502187-23.190186-13.000249c-2.85696-5.575111-3.474773-12.539449-1.52576-18.228338h-0.068267c12.959289-38.684444 3.623822-82.796089-24.5248-113.731129-28.007538-30.862222-70.575218-44.497351-111.612587-35.791075-6.200889 1.324373-12.680533 0.18432-17.976889-3.226738-5.292942-3.415609-9.055573-8.757476-10.378809-14.88896-2.719289-12.751076 5.503431-25.348551 18.389903-28.066702 55.670329-11.773724 116.19328 5.441991 157.090702 50.449066C822.080853 360.484409 832.853333 421.800391 815.786667 475.655964v0.070543z"  /><path fill="#90aaa1" d="M438.000071 482.342684c-103.112249 10.104604-181.353813 72.875804-174.665955 140.039965 6.688996 67.304107 95.726933 113.565013 198.842595 103.462684 103.112249-10.102329 181.352676-72.804124 174.664818-140.109369-6.687858-67.163022-95.725796-113.491058-198.841458-103.39328z m90.433991 158.641494c-21.040924 47.306524-81.585493 72.460516-132.929991 56.015075-49.608249-15.88224-70.579769-64.513138-48.842524-108.338062 21.31968-42.920391 76.777244-67.16416 125.827982-54.48704 50.7904 13.032107 76.705564 60.621938 55.944533 106.810027z"  /></svg>